#N canvas 66 44 505 617 12;
#X obj 122 154 gemhead;
#X floatatom 175 241 5 0 0 0 - - -;
#X msg 42 292 auto \$1;
#X obj 42 267 tgl 15 0 empty empty empty 20 8 0 8 -262144 -1 -1 1 1
;
#X floatatom 156 299 5 0 0 0 - - -;
#X obj 122 271 pix_film;
#X obj 191 271 t f;
#X obj 122 448 pix_texture;
#X obj 20 49 cnv 15 220 70 empty empty empty 20 12 0 14 -195568 -66577
0;
#N canvas 0 22 454 304 gemwin 1;
#X obj 186 189 gemwin;
#X obj 67 89 outlet;
#X obj 67 10 inlet;
#X obj 67 41 route create;
#X msg 67 70 set destroy;
#X msg 182 68 set create;
#X msg 132 112 create \, 1;
#X msg 238 112 destroy;
#N canvas 87 154 247 179 Gem.init 0;
#X obj 118 46 loadbang;
#X msg 118 81 reset;
#X obj 118 113 outlet;
#X connect 0 0 1 0;
#X connect 1 0 2 0;
#X restore 289 80 pd Gem.init;
#X msg 295 36 dimen 500 373;
#X connect 2 0 3 0;
#X connect 3 0 4 0;
#X connect 3 0 6 0;
#X connect 3 1 5 0;
#X connect 3 1 7 0;
#X connect 4 0 1 0;
#X connect 5 0 1 0;
#X connect 6 0 0 0;
#X connect 7 0 0 0;
#X connect 8 0 0 0;
#X connect 9 0 0 0;
#X restore 25 93 pd gemwin;
#X msg 25 69 create;
#X text 21 49 Create window and render;
#X msg 37 227 thread 0;
#X msg 152 184 open /usr/lib/pd-extended/extra/Gem/examples/data/anim-1.mov
;
#X obj 122 335 pix_rgba;
#X obj 122 376 fux_videoglitch;
#X floatatom 216 330 5 0 0 0 - - -;
#X floatatom 354 329 5 0 0 0 - - -;
#X obj 122 511 rectangle 4 3;
#X obj 122 484 scaleXYZ;
#X floatatom 152 407 5 0 0 0 - - -;
#X text 236 309 GLITCH LOCATION;
#X text 363 308 GLITCH AMOUNT;
#X obj 288 239 loadbang;
#X msg 354 273 3;
#X msg 245 268 244;
#X text 213 355 FINE TUNE TO GET DESIRED EFFECTS!!!!;
#X connect 0 0 5 0;
#X connect 1 0 5 1;
#X connect 2 0 5 0;
#X connect 3 0 2 0;
#X connect 5 0 14 0;
#X connect 5 1 4 0;
#X connect 5 2 6 0;
#X connect 6 0 5 1;
#X connect 7 0 19 0;
#X connect 9 0 10 0;
#X connect 10 0 9 0;
#X connect 12 0 5 0;
#X connect 13 0 5 0;
#X connect 14 0 15 0;
#X connect 15 0 7 0;
#X connect 16 0 15 1;
#X connect 17 0 15 2;
#X connect 19 0 18 0;
#X connect 20 0 19 1;
#X connect 20 0 19 2;
#X connect 23 0 24 0;
#X connect 23 0 25 0;
#X connect 24 0 17 0;
#X connect 25 0 16 0;
